<?xml version="1.0" encoding="UTF-8"?><svg id="Layer_2" xmlns="http://www.w3.org/2000/svg" xmlns:xlink="http://www.w3.org/1999/xlink" viewBox="0 0 293.96 88.01"><defs><style>.cls-1{fill:none;}.cls-2{fill:#c41e2a;}.cls-3{fill:#fff;}.cls-4{clip-path:url(#clippath);}</style><clipPath id="clippath"><path class="cls-1" d="M63.99,10.39c-17.22-4.52-34.89-4.52-53.01,0-2.34.61-3.99,1.83-3.99,4.09v48.9c0,1.47.77,2.84,2.02,3.56l26.5,13.54c1.22.71,2.71.71,3.92,0l26.5-13.54c1.25-.73,2.02-2.09,2.02-3.56V14.48c0-2.26-1.71-3.56-3.99-4.09Z"/></clipPath></defs><g id="Layer_1-2"><path class="cls-2" d="M89.88,70.49h-3.87v-2.26h10.48v2.26h-3.86v10.49h-2.76v-10.49Z"/><path class="cls-2" d="M105.78,68.23v7.59c0,2.45,1.26,3.17,2.63,3.17,1.58,0,2.57-.86,2.57-3.17v-7.59h2.76v7.46c0,4.36-2.55,5.47-5.36,5.47s-5.35-1.16-5.35-5.42v-7.51h2.76Z"/><path class="cls-2" d="M123.93,75.88v5.1h-2.69v-12.75h5.6c2.78,0,4.27,1.53,4.27,3.5,0,1.71-.93,2.64-1.85,3.02.63.23,1.58.89,1.58,3.17v.63c0,.86,0,1.83.18,2.43h-2.61c-.22-.55-.27-1.51-.27-2.86v-.19c0-1.39-.35-2.05-2.4-2.05h-1.81ZM123.93,73.68h2.31c1.51,0,2.09-.57,2.09-1.64s-.68-1.62-2.02-1.62h-2.38v3.26Z"/><path class="cls-2" d="M138.16,68.23h8.89v2.26h-6.2v3.12h5.81v2.26h-5.81v5.11h-2.69v-12.75Z"/><path class="cls-2" d="M162.69,68.23h5.27c2.71,0,4.54,1.52,4.54,3.95,0,2.77-2.1,4.04-4.61,4.04h-2.45v4.76h-2.76v-12.75ZM165.45,74.02h2.1c1.27,0,2.18-.49,2.18-1.79s-.95-1.81-2.12-1.81h-2.16v3.6Z"/><path class="cls-2" d="M181.86,75.88v5.1h-2.69v-12.75h5.6c2.78,0,4.27,1.53,4.27,3.5,0,1.71-.93,2.64-1.85,3.02.63.23,1.58.89,1.58,3.17v.63c0,.86,0,1.83.18,2.43h-2.61c-.22-.55-.27-1.51-.27-2.86v-.19c0-1.39-.35-2.05-2.4-2.05h-1.81ZM181.86,73.68h2.31c1.51,0,2.09-.57,2.09-1.64s-.68-1.62-2.02-1.62h-2.38v3.26Z"/><path class="cls-2" d="M207.8,74.56c0,3.55-2.13,6.6-6.27,6.6s-6.09-2.91-6.09-6.56,2.31-6.56,6.27-6.56c3.73,0,6.09,2.61,6.09,6.52ZM198.29,74.55c0,2.49,1.09,4.37,3.35,4.37,2.45,0,3.32-2.05,3.32-4.32,0-2.41-.99-4.31-3.36-4.31s-3.3,1.78-3.3,4.26Z"/><path class="cls-2" d="M214.8,68.23h5.05c3.71,0,6.13,2.44,6.13,6.21s-2.35,6.53-6.25,6.53h-4.93v-12.75ZM217.56,78.75h2.07c2.44,0,3.52-1.82,3.52-4.3,0-2.08-1.01-3.99-3.51-3.99h-2.08v8.29Z"/><path class="cls-2" d="M235.6,68.23v7.59c0,2.45,1.26,3.17,2.63,3.17,1.58,0,2.57-.86,2.57-3.17v-7.59h2.76v7.46c0,4.36-2.55,5.47-5.36,5.47s-5.35-1.16-5.35-5.42v-7.51h2.76Z"/><path class="cls-2" d="M261.82,77.05c-.51,2.38-2.3,4.11-5.49,4.11-4.04,0-5.95-2.86-5.95-6.49s1.97-6.63,6.08-6.63c3.39,0,5.04,1.99,5.35,4.12h-2.75c-.27-.98-.95-1.96-2.68-1.96-2.27,0-3.15,2.04-3.15,4.36,0,2.16.76,4.43,3.22,4.43,1.8,0,2.36-1.21,2.6-1.95h2.77Z"/><path class="cls-2" d="M271.34,70.49h-3.87v-2.26h10.48v2.26h-3.86v10.49h-2.76v-10.49Z"/><path class="cls-2" d="M286.37,77.24c.29,1.28,1.21,1.84,2.68,1.84s2.1-.58,2.1-1.51c0-1.04-.61-1.49-2.79-2-3.47-.81-4.32-2.08-4.32-3.8,0-2.22,1.66-3.73,4.68-3.73,3.38,0,4.73,1.82,4.91,3.68h-2.77c-.13-.78-.57-1.64-2.21-1.64-1.12,0-1.79.46-1.79,1.37s.54,1.25,2.6,1.72c3.7.87,4.52,2.25,4.52,4.05,0,2.33-1.76,3.92-5.13,3.92s-4.94-1.59-5.24-3.92h2.78Z"/><path class="cls-3" d="M96.84,49.77l-1.2,11.95h-9.84l7.06-50.11h14.35l7.28,50.11h-9.99l-1.43-11.95h-6.23ZM102.25,41.28c-.68-6.39-1.65-16.15-2.18-20.96h-.38c-.15,3.46-1.35,14.73-2.03,20.96h4.58Z"/><path class="cls-3" d="M118.09,11.6h9.61v41.7h12.17l-.9,8.42h-20.88V11.6Z"/><path class="cls-3" d="M142.8,11.6h9.61v41.7h12.17l-.9,8.42h-20.88V11.6Z"/><path class="cls-3" d="M177.13,11.6v50.11h-9.61V11.6h9.61Z"/><path class="cls-3" d="M191.85,49.77l-1.2,11.95h-9.84l7.06-50.11h14.35l7.28,50.11h-9.99l-1.43-11.95h-6.23ZM197.25,41.28c-.68-6.39-1.65-16.15-2.18-20.96h-.38c-.15,3.46-1.35,14.73-2.03,20.96h4.58Z"/><path class="cls-3" d="M213.1,61.72V11.6h10.67l5.18,22.01c.75,3.01,1.43,6.76,1.8,9.02h.23c-.53-6.69-.83-15.78-.83-22.84v-8.19h8.94v50.11h-10.82l-5.41-24.94c-.53-2.48-1.05-5.79-1.43-7.36h-.23c.38,5.86.68,15.85.68,23.74v8.57h-8.79Z"/><path class="cls-3" d="M268.12,45.34v2.7c0,6.31-1.2,14.43-12.69,14.43-8.49,0-12.17-4.51-12.17-13.75v-24.57c0-8.72,4.36-13.3,12.39-13.3,10.59,0,12.32,6.91,12.32,13.52v3.16h-9.69v-4.28c0-2.78-.6-4.21-2.63-4.21s-2.63,1.35-2.63,4.21v26.52c0,2.63.45,4.51,2.63,4.51s2.7-1.58,2.7-4.73v-4.21h9.76Z"/><path class="cls-3" d="M292.16,39.55h-10.29v13.67h12.09l-1.13,8.49h-20.65V11.6h20.58v8.49h-10.89v10.97h10.29v8.49Z"/><path d="M37.83,0c-9.37,0-18.97,1.21-28.54,3.6C7.09,4.17,0,6.62,0,14.48v48.9c0,3.96,2.12,7.65,5.52,9.62l.15.09.03.02.03.02,26.46,13.52c1.62.9,3.45,1.37,5.29,1.37s3.66-.47,5.26-1.35l26.4-13.49.27-.15h.03s.02-.03.02-.03c3.4-1.97,5.51-5.66,5.51-9.62V14.48c0-7.56-7.1-10.36-9.21-10.85h0C56.62,1.22,47.22,0,37.83,0h0Z"/><path class="cls-2" d="M63.99,10.39c-17.22-4.52-34.89-4.52-53.01,0-2.34.61-3.99,1.83-3.99,4.09v48.9c0,1.47.77,2.84,2.02,3.56l26.5,13.54c1.22.71,2.71.71,3.92,0l26.5-13.54c1.25-.73,2.02-2.09,2.02-3.56V14.48c0-2.26-1.71-3.56-3.99-4.09Z"/><path class="cls-3" d="M58.6,29.22c-1.72-.42-5.66-1.25-9.9-1.37,6.55,5.39,8.49,11.73,8.95,14.58.99-2.51,1.54-5.25,1.54-8.12,0-1.75-.21-3.46-.59-5.09Z"/><path class="cls-3" d="M28.31,14.05c-4.16,1.81-7.65,4.85-10.01,8.67.93,1.52,3.12,4.89,6.03,7.97-.82-8.44,2.29-14.3,3.98-16.64Z"/><path class="cls-3" d="M16.56,26.2c-.99,2.51-1.54,5.25-1.54,8.12,0,1.75.21,3.46.59,5.09,1.72.42,5.66,1.25,9.9,1.37-6.55-5.39-8.49-11.73-8.95-14.58Z"/><path class="cls-3" d="M45.22,13.77c-2.51-.99-5.25-1.54-8.12-1.54-1.75,0-3.46.21-5.09.59-.42,1.72-1.25,5.66-1.37,9.9,5.39-6.55,11.73-8.49,14.58-8.95Z"/><path class="cls-3" d="M45.9,54.58c4.16-1.81,7.65-4.85,10.01-8.67-.93-1.52-3.12-4.89-6.03-7.97.82,8.44-2.29,14.3-3.98,16.64Z"/><path class="cls-3" d="M16.84,43.11c1.81,4.16,4.85,7.65,8.67,10.01,1.52-.93,4.89-3.12,7.97-6.03-8.44.82-14.3-2.29-16.64-3.98Z"/><path class="cls-3" d="M28.99,54.86c2.51.99,5.25,1.54,8.12,1.54,1.75,0,3.46-.21,5.09-.59.42-1.72,1.25-5.66,1.37-9.9-5.39,6.55-11.73,8.49-14.58,8.95Z"/><path class="cls-3" d="M57.37,25.53c-1.81-4.16-4.85-7.65-8.67-10.01-1.52.93-4.89,3.12-7.97,6.03,8.44-.82,14.3,2.29,16.64,3.98Z"/><circle class="cls-3" cx="37.1" cy="34.32" r="5.17"/><g class="cls-4"><rect class="cls-3" x="14.12" y="61.87" width="4" height="19.78"/><rect class="cls-3" x="7" y="61.87" width="4" height="19.78"/><rect class="cls-3" x="21.24" y="61.87" width="4" height="19.78"/><rect class="cls-3" x="28.37" y="61.87" width="4" height="19.78"/><rect class="cls-3" x="35.49" y="61.87" width="4" height="19.78"/><rect class="cls-3" x="42.61" y="61.87" width="4" height="19.78"/><rect class="cls-3" x="49.74" y="61.87" width="4" height="19.78"/><rect class="cls-3" x="56.86" y="61.87" width="4" height="19.78"/><rect class="cls-3" x="63.98" y="61.87" width="4" height="19.78"/><path class="cls-1" d="M37.49,85.01c-1.35,0-2.68-.35-3.86-1.01l-26.43-13.5c-.06-.03-.13-.07-.19-.1-2.48-1.44-4.02-4.13-4.02-7.02V14.48c0-1.85.68-6.33,6.98-7.96,9.37-2.34,18.73-3.52,27.85-3.52s18.28,1.18,27.18,3.52c.04,0,.08.02.12.03,6.19,1.82,6.86,6.15,6.86,7.93v48.9c0,2.89-1.54,5.58-4.02,7.02-.06.04-.12.07-.19.1l-26.43,13.5c-1.18.66-2.51,1.01-3.86,1.01Z"/></g><path class="cls-2" d="M37.83,2c9.22,0,18.45,1.2,27.43,3.55,0,0,7.72,1.83,7.72,8.93v48.9c0,3.25-1.73,6.27-4.52,7.89l-.23.12-26.43,13.5c-1.3.72-2.8,1.12-4.32,1.12s-3.02-.39-4.35-1.13l-26.49-13.53-.13-.07c-2.79-1.62-4.52-4.64-4.52-7.89V14.48c0-2.08.76-7.12,7.77-8.94,9.42-2.35,18.86-3.54,28.06-3.54M37.83,0c-9.37,0-18.97,1.21-28.54,3.6C7.09,4.17,0,6.62,0,14.48v48.9c0,3.96,2.12,7.65,5.52,9.62l.15.09.03.02.03.02,26.46,13.52c1.62.9,3.45,1.37,5.29,1.37s3.66-.47,5.26-1.35l26.4-13.49.27-.15h.03s.02-.03.02-.03c3.4-1.97,5.51-5.66,5.51-9.62V14.48c0-7.56-7.1-10.36-9.21-10.85h0C56.62,1.22,47.22,0,37.83,0h0Z"/></g></svg>